<svg width="60" height="50" viewBox="0 0 60 50" fill="none" xmlns="http://www.w3.org/2000/svg">
<path d="M59.1494 18.4686L45.4636 4.78274C44.3673 3.68741 42.4488 3.69025 41.3625 4.77801L21.8555 24.0322H19.2542C22.7953 21.8033 25.1613 17.8704 25.1613 13.387C25.1613 6.4503 19.5174 0.806396 12.5806 0.806396C5.6439 0.806396 0 6.4503 0 13.387C0 20.0615 5.22855 25.5235 11.8033 25.928C11.6866 26.2436 11.6129 26.5801 11.6129 26.9354V46.2903C11.6129 47.8907 12.9157 49.1935 14.5161 49.1935H45.4839C47.0843 49.1935 48.3871 47.8907 48.3871 46.2903V33.3373L59.1494 22.5749C59.6981 22.0273 60 21.2972 60 20.5213C60 19.7459 59.6981 19.0163 59.1494 18.4686ZM46.1497 8.20575L47.5162 9.5723L33.0573 24.0322H30.395L46.1497 8.20575ZM22.6488 25.9677L42.7257 6.15119C43.1042 5.77363 43.7166 5.77174 44.0951 6.15119L44.7803 6.8373L25.7382 25.9677H45.4839C46.0178 25.9677 46.4516 26.4015 46.4516 26.9354V27.9032H13.5484V26.9354C13.5484 26.4015 13.9822 25.9677 14.5161 25.9677H22.6488ZM42.0415 23.2591L46.1478 19.1529L48.8847 21.8907L51.6211 19.1529L52.9905 20.5222L47.9991 25.5136C47.4997 24.6342 46.566 24.0322 45.4839 24.0322H42.815L42.0415 23.2591ZM47.5162 17.7844L48.8847 16.416L50.2531 17.7844L48.8847 19.1538L47.5162 17.7844ZM13.5484 29.8387H46.4516V31.7741H13.5484V29.8387ZM1.93548 13.387C1.93548 7.51774 6.71135 2.74188 12.5806 2.74188C18.4499 2.74188 23.2258 7.51774 23.2258 13.387C23.2258 19.2563 18.4499 24.0322 12.5806 24.0322C6.71135 24.0322 1.93548 19.2563 1.93548 13.387ZM45.4839 47.258H14.5161C13.9822 47.258 13.5484 46.8242 13.5484 46.2903V33.7096H46.4516V46.2903C46.4516 46.8242 46.0178 47.258 45.4839 47.258ZM57.781 21.2065L48.3871 30.6004V27.8625L54.3599 21.8907C55.115 21.1356 55.115 19.9075 54.3599 19.1529L50.2541 15.0475C49.4999 14.2938 48.2709 14.2938 47.5172 15.0475L40.674 21.8907C40.0956 22.4681 39.9638 23.3239 40.2728 24.0322H35.7946L48.8856 10.9417L57.781 19.8371C58.1585 20.2156 58.1585 20.828 57.781 21.2065Z" fill="#272727"/>
</svg>
