<svg width="52" height="60" viewBox="0 0 52 60" fill="none" xmlns="http://www.w3.org/2000/svg">
<path d="M49.0809 55.0775H44.8112V50.5049C44.8112 50.0195 44.4178 49.6259 43.9321 49.6259C43.4466 49.6259 43.0531 50.0194 43.0531 50.5049V55.0777H36.5392C36.6059 54.8547 36.6429 54.6189 36.6429 54.3743C36.6429 53.2049 35.8223 52.2254 34.7273 51.9762V38.2655H43.0532V46.403C43.0532 46.8885 43.4466 47.282 43.9322 47.282C44.4178 47.282 44.8113 46.8886 44.8113 46.403V37.3866V35.1009C44.8231 35.1009 44.975 35.1009 44.9631 35.1009C46.1396 35.1009 47.0808 34.1515 47.0808 32.9834C47.0808 30.2674 47.0841 29.8362 47.0717 29.4015C47.069 28.9535 46.851 28.5299 46.4874 28.2673L31.671 17.5733C30.3458 16.6168 29.1086 16.9274 28.4624 16.8659V11.3992H36.6219C37.3472 11.3992 37.9375 10.809 37.9375 10.0835V3.70911C37.9375 3.03774 37.3913 2.49153 36.7198 2.49153H28.4624V2.46012C28.4624 0.974771 27.0953 -0.31687 25.4229 0.0690287C24.2649 0.363638 23.54 1.36817 23.54 2.46012V4.89446C23.54 5.37997 23.9334 5.77348 24.419 5.77348C24.9045 5.77348 25.298 5.38008 25.298 4.89446V2.46012C25.298 2.09614 25.5826 1.77399 25.9847 1.75852C26.397 1.7502 26.7046 2.08055 26.7046 2.46012V3.37055C26.7046 4.72782 26.7046 15.3254 26.7046 16.8657H25.298V8.99625C25.298 8.51075 24.9046 8.11723 24.419 8.11723C23.9335 8.11723 23.54 8.51063 23.54 8.99625V16.8656C22.6501 16.9386 21.4794 16.6035 20.2172 17.5147L5.6915 27.999C5.21373 28.3436 4.92838 28.9013 4.92838 29.4905C4.92463 33.1733 4.87998 33.1813 5.01463 33.6125C5.51853 35.2334 7.17803 35.0968 7.19092 35.1009C7.19092 39.0463 7.19092 50.3538 7.19092 55.0775H2.92143C1.53334 55.0775 0.454394 56.2402 0.461894 57.4788C0.395097 58.7705 1.48635 60 2.92143 60H49.081C50.4381 60 51.5423 58.8959 51.5423 57.5387C51.5422 56.1995 50.4528 55.0775 49.0809 55.0775ZM36.1795 4.24946V9.64126H28.4624V4.24946H36.1795ZM34.8851 54.3742C34.8851 54.762 34.5697 55.0774 34.1819 55.0774H30.3146C29.9269 55.0774 29.6113 54.762 29.6113 54.3743C29.6113 53.9866 29.9269 53.6711 30.3146 53.6711C31.0533 53.6711 33.4399 53.6711 34.1819 53.6711C34.5695 53.6711 34.8851 53.9865 34.8851 54.3742ZM27.9556 55.0775H26.5553V48.1806H29.7691V51.9739C28.3858 52.2882 27.5497 53.719 27.9556 55.0775ZM21.5835 51.9741V48.1807H24.7973V55.0777H23.3969C23.8075 53.7035 22.9478 52.2839 21.5835 51.9741ZM14.8133 55.0775H8.94908V38.2655H16.6253V51.9762C15.2588 52.287 14.4002 53.6957 14.8133 55.0775ZM8.94908 36.5075V35.1009H16.6253V36.5075H8.94908ZM17.1707 53.6711C17.1828 53.6711 21.049 53.6685 21.1099 53.6747C21.44 53.7083 21.704 53.972 21.7376 54.3025C21.7802 54.7167 21.4536 55.0775 21.0379 55.0775H17.1706C16.7828 55.0775 16.4672 54.7621 16.4672 54.3743C16.4675 53.9865 16.7829 53.6711 17.1707 53.6711ZM18.3833 51.9131C18.3833 49.404 18.3833 37.1658 18.3833 35.1011H19.8257C19.8257 37.74 19.8257 44.5662 19.8257 47.3017V51.9131H18.3833ZM21.5835 46.4228V38.2655H29.7691V46.4228C27.5642 46.4228 22.868 46.4228 21.5835 46.4228ZM21.5835 36.5075V35.1009H29.7691V36.5075H21.5835ZM31.527 51.9131V47.3016C31.527 44.5559 31.527 37.7296 31.527 35.1009H32.9695C32.9695 37.1629 32.9695 49.4095 32.9695 51.913H31.527V51.9131ZM43.0533 36.5075H34.7274V35.1009H43.0533V36.5075ZM7.03705 33.343C6.85389 33.343 6.73236 33.2162 6.69299 33.0896C6.66615 33.0045 6.68596 32.9945 6.6842 31.9364H15.4532C15.9387 31.9364 16.3322 31.543 16.3322 31.0574C16.3322 30.572 15.9388 30.1784 15.4532 30.1784H6.68631C6.69721 29.5386 6.65736 29.47 6.72006 29.4244C21.9538 18.565 21.217 18.6236 22.2256 18.6236C24.9071 18.6236 26.9019 18.6236 29.482 18.6236C30.6531 18.6236 29.9035 18.6253 45.3162 29.5897C45.3163 29.6016 45.3234 30.2174 45.323 30.1781H19.5553C19.0697 30.1781 18.6762 30.5716 18.6762 31.0572C18.6762 31.5427 19.0696 31.9362 19.5553 31.9362H45.323C45.3179 33.0192 45.3351 33.0002 45.307 33.0902C45.263 33.2313 45.1318 33.3428 44.963 33.3428C36.4416 33.3428 27.9953 33.3428 17.5042 33.3428C15.641 33.343 8.2865 33.343 7.03705 33.343ZM49.0809 58.2421H2.92143C2.47201 58.2421 2.13322 57.8218 2.23717 57.3817C2.24502 57.37 2.3615 56.8355 2.92143 56.8355C15.2544 56.8355 41.4659 56.8355 49.081 56.8355C49.4324 56.8355 49.7579 57.0884 49.7841 57.5571C49.7743 57.9366 49.4627 58.2421 49.0809 58.2421Z" fill="#272727"/>
</svg>
