<svg width="24" height="22" viewBox="0 0 24 22" fill="none" xmlns="http://www.w3.org/2000/svg">
<path d="M11.5948 3.49911L12 4.05935L12.4051 3.49913C12.8296 2.91225 13.3075 2.41423 13.8304 2.00973C14.8616 1.21233 16.0232 0.8125 17.2956 0.8125C19.0111 0.8125 20.5819 1.49751 21.7285 2.74103C22.8632 3.97189 23.5 5.66666 23.5 7.52502C23.5 9.41132 22.8038 11.1602 21.2348 13.0533L21.2348 13.0533C19.8158 14.7656 17.7661 16.5144 15.3373 18.5842L15.3372 18.5842L15.3165 18.6019C14.4958 19.3014 13.5646 20.0951 12.5983 20.9401L12.598 20.9404C12.433 21.0848 12.2206 21.1648 12 21.1648C11.7794 21.1648 11.5671 21.0849 11.4016 20.94L11.4013 20.9397C10.4279 20.0887 9.49075 19.29 8.66603 18.587L8.66332 18.5847L8.66329 18.5847C6.2341 16.5146 4.18441 14.7657 2.76535 13.0535C1.19634 11.1602 0.5 9.41129 0.5 7.52521C0.5 5.66666 1.1368 3.97189 2.27135 2.74103C3.41786 1.49752 4.98889 0.8125 6.70441 0.8125C7.97679 0.8125 9.1384 1.21234 10.1694 2.00971L10.1694 2.00973C10.6925 2.41421 11.1706 2.91241 11.5948 3.49911Z" stroke="#272727"/>
</svg>
