<svg width="30" height="20" viewBox="0 0 30 20" fill="none" xmlns="http://www.w3.org/2000/svg">
<path d="M27.6562 0.15625H2.34375C1.97079 0.15625 1.6131 0.304408 1.34938 0.568131C1.08566 0.831854 0.9375 1.18954 0.9375 1.5625V18.4375C0.9375 18.8105 1.08566 19.1681 1.34938 19.4319C1.6131 19.6956 1.97079 19.8438 2.34375 19.8438H27.6562C28.0292 19.8438 28.3869 19.6956 28.6506 19.4319C28.9143 19.1681 29.0625 18.8105 29.0625 18.4375V1.5625C29.0625 1.18954 28.9143 0.831854 28.6506 0.568131C28.3869 0.304408 28.0292 0.15625 27.6562 0.15625ZM28.125 18.4375C28.125 18.5618 28.0756 18.681 27.9877 18.769C27.8998 18.8569 27.7806 18.9062 27.6562 18.9062H13.125V17.5H12.1875V18.9062H2.34375C2.21943 18.9062 2.1002 18.8569 2.01229 18.769C1.92439 18.681 1.875 18.5618 1.875 18.4375V1.5625C1.875 1.43818 1.92439 1.31895 2.01229 1.23104C2.1002 1.14314 2.21943 1.09375 2.34375 1.09375H12.1875V9.0625H13.125V1.09375H27.6562C27.7806 1.09375 27.8998 1.14314 27.9877 1.23104C28.0756 1.31895 28.125 1.43818 28.125 1.5625V18.4375Z" fill="#272727"/>
<path d="M10.7812 10.4688H3.28125C3.15693 10.4688 3.0377 10.5181 2.94979 10.606C2.86189 10.694 2.8125 10.8132 2.8125 10.9375V17.5C2.8125 17.6243 2.86189 17.7435 2.94979 17.8315C3.0377 17.9194 3.15693 17.9688 3.28125 17.9688H10.7812C10.9056 17.9688 11.0248 17.9194 11.1127 17.8315C11.2006 17.7435 11.25 17.6243 11.25 17.5V10.9375C11.25 10.8132 11.2006 10.694 11.1127 10.606C11.0248 10.5181 10.9056 10.4688 10.7812 10.4688ZM10.3125 17.0312H3.75V11.4062H10.3125V17.0312Z" fill="#272727"/>
<path d="M12.1875 10H13.125V10.9375H12.1875V10Z" fill="#272727"/>
<path d="M12.1875 11.875H13.125V12.8125H12.1875V11.875Z" fill="#272727"/>
<path d="M12.1875 13.75H13.125V14.6875H12.1875V13.75Z" fill="#272727"/>
<path d="M12.1875 15.625H13.125V16.5625H12.1875V15.625Z" fill="#272727"/>
<path d="M23.4375 2.5C22.7411 2.50012 22.0699 2.76004 21.555 3.22891C21.3053 3.14628 21.0436 3.10588 20.7806 3.10938C20.3055 3.10085 19.8392 3.23881 19.4452 3.50453C19.1935 3.67472 18.8967 3.76567 18.593 3.76567C18.2892 3.76567 17.9924 3.67472 17.7408 3.50453C17.3471 3.2388 16.8811 3.10083 16.4062 3.10938V4.04688C16.711 4.03859 17.0102 4.13029 17.258 4.30797C17.6557 4.56629 18.1197 4.70377 18.5939 4.70377C19.0681 4.70377 19.5322 4.56629 19.9298 4.30797C20.1779 4.13022 20.4774 4.03852 20.7825 4.04688C20.8373 4.04688 20.8791 4.05344 20.9264 4.05719C20.7785 4.34916 20.6833 4.66494 20.6452 4.99C20.2169 5.00662 19.8015 5.14144 19.4452 5.37953C19.1935 5.54972 18.8967 5.64067 18.593 5.64067C18.2892 5.64067 17.9924 5.54972 17.7408 5.37953C17.3471 5.1138 16.8811 4.97583 16.4062 4.98438V5.92188C16.711 5.91359 17.0102 6.00529 17.258 6.18297C17.6557 6.44129 18.1197 6.57877 18.5939 6.57877C19.0681 6.57877 19.5322 6.44129 19.9298 6.18297C20.1555 6.02567 20.4218 5.9371 20.6967 5.92797C20.8127 6.44514 21.0725 6.91901 21.4461 7.29496C21.8197 7.67092 22.2919 7.93366 22.8083 8.0529C23.3247 8.17214 23.8643 8.14303 24.3649 7.96892C24.8655 7.79481 25.3068 7.4828 25.6377 7.06883C25.9687 6.65487 26.176 6.1558 26.2357 5.62916C26.2953 5.10251 26.205 4.56972 25.975 4.0922C25.7451 3.61467 25.3848 3.21184 24.9359 2.93014C24.4869 2.64844 23.9675 2.49933 23.4375 2.5ZM23.4375 7.1875C23.1214 7.18685 22.8107 7.10617 22.5342 6.95297C22.2577 6.79978 22.0245 6.57906 21.8564 6.31141C22.1977 6.49546 22.5811 6.58739 22.9687 6.57813V5.64063C22.6637 5.64899 22.3642 5.55729 22.1161 5.37953C21.948 5.27231 21.7693 5.18292 21.5827 5.11281C21.6092 4.86593 21.6849 4.62687 21.8053 4.40969C22.1589 4.61217 22.5614 4.71367 22.9687 4.70313V3.76563C22.8098 3.76937 22.6513 3.74623 22.5 3.69719C22.7838 3.52872 23.1075 3.43907 23.4375 3.4375C23.9348 3.4375 24.4117 3.63505 24.7633 3.98668C25.115 4.33831 25.3125 4.81522 25.3125 5.3125C25.3125 5.80978 25.115 6.2867 24.7633 6.63833C24.4117 6.98996 23.9348 7.1875 23.4375 7.1875Z" fill="#272727"/>
<path d="M15 9.53125H23.4375V10.4688H15V9.53125Z" fill="#272727"/>
<path d="M15 11.4062H23.4375V12.3438H15V11.4062Z" fill="#272727"/>
<path d="M15 13.2812H23.4375V14.2188H15V13.2812Z" fill="#272727"/>
<path d="M15 16.0938H15.9375V17.9688H15V16.0938Z" fill="#272727"/>
<path d="M16.875 16.0938H17.8125V17.9688H16.875V16.0938Z" fill="#272727"/>
<path d="M18.75 16.0938H19.6875V17.9688H18.75V16.0938Z" fill="#272727"/>
<path d="M20.625 16.0938H21.5625V17.9688H20.625V16.0938Z" fill="#272727"/>
<path d="M22.5 16.0938H23.4375V17.9688H22.5V16.0938Z" fill="#272727"/>
<path d="M3.75 3.4375H9.375V4.375H3.75V3.4375Z" fill="#272727"/>
<path d="M3.75 5.3125H9.375V6.25H3.75V5.3125Z" fill="#272727"/>
</svg>
