<svg width="30" height="26" viewBox="0 0 30 26" fill="none" xmlns="http://www.w3.org/2000/svg">
<path d="M29.0625 6.43751H27.0187L24.3316 0.616221C24.2846 0.513912 24.2022 0.431997 24.0997 0.385504C23.9971 0.33901 23.8812 0.331055 23.7732 0.363096L3.21328 6.43751H0.9375C0.81318 6.43751 0.693951 6.4869 0.606044 6.5748C0.518136 6.66271 0.46875 6.78194 0.46875 6.90626V24.7188C0.46875 24.8431 0.518136 24.9623 0.606044 25.0502C0.693951 25.1381 0.81318 25.1875 0.9375 25.1875H29.0625C29.1868 25.1875 29.306 25.1381 29.394 25.0502C29.4819 24.9623 29.5312 24.8431 29.5312 24.7188V6.90626C29.5312 6.78194 29.4819 6.66271 29.394 6.5748C29.306 6.4869 29.1868 6.43751 29.0625 6.43751ZM23.6502 1.37677L25.9863 6.43751H6.52207L23.6502 1.37677ZM28.5938 24.25H1.40625V7.37501H28.5938V24.25Z" fill="#272727"/>
<path d="M23.4375 14.4062H27.1875C27.3118 14.4062 27.431 14.3569 27.519 14.269C27.6069 14.181 27.6562 14.0618 27.6562 13.9375V8.78125C27.6562 8.65693 27.6069 8.5377 27.519 8.44979C27.431 8.36189 27.3118 8.3125 27.1875 8.3125H23.4375C23.3132 8.3125 23.194 8.36189 23.106 8.44979C23.0181 8.5377 22.9688 8.65693 22.9688 8.78125V13.9375C22.9688 14.0618 23.0181 14.181 23.106 14.269C23.194 14.3569 23.3132 14.4062 23.4375 14.4062ZM23.9062 9.25H26.7188V13.4688H23.9062V9.25Z" fill="#272727"/>
<path d="M27.1875 20.9688H25.3125C25.1882 20.9688 25.069 21.0181 24.981 21.106C24.8931 21.194 24.8438 21.3132 24.8438 21.4375C24.8438 21.5618 24.8931 21.681 24.981 21.769C25.069 21.8569 25.1882 21.9062 25.3125 21.9062H27.1875C27.3118 21.9062 27.431 21.8569 27.519 21.769C27.6069 21.681 27.6562 21.5618 27.6562 21.4375C27.6562 21.3132 27.6069 21.194 27.519 21.106C27.431 21.0181 27.3118 20.9688 27.1875 20.9688Z" fill="#272727"/>
<path d="M22.0312 23.3125H27.1875C27.3118 23.3125 27.431 23.2631 27.519 23.1752C27.6069 23.0873 27.6562 22.9681 27.6562 22.8438C27.6562 22.7194 27.6069 22.6002 27.519 22.5123C27.431 22.4244 27.3118 22.375 27.1875 22.375H22.0312C21.9069 22.375 21.7877 22.4244 21.6998 22.5123C21.6119 22.6002 21.5625 22.7194 21.5625 22.8438C21.5625 22.9681 21.6119 23.0873 21.6998 23.1752C21.7877 23.2631 21.9069 23.3125 22.0312 23.3125Z" fill="#272727"/>
<path d="M15 23.3125C15.1243 23.3125 15.2435 23.2631 15.3315 23.1752C15.4194 23.0873 15.4688 22.9681 15.4688 22.8438V8.78125C15.4688 8.65693 15.4194 8.5377 15.3315 8.44979C15.2435 8.36189 15.1243 8.3125 15 8.3125C14.8757 8.3125 14.7565 8.36189 14.6685 8.44979C14.5806 8.5377 14.5312 8.65693 14.5312 8.78125V22.8438C14.5312 22.9681 14.5806 23.0873 14.6685 23.1752C14.7565 23.2631 14.8757 23.3125 15 23.3125Z" fill="#272727"/>
<path d="M20.1562 23.3125H20.625C20.7493 23.3125 20.8685 23.2631 20.9565 23.1752C21.0444 23.0873 21.0938 22.9681 21.0938 22.8438C21.0938 22.7194 21.0444 22.6002 20.9565 22.5123C20.8685 22.4244 20.7493 22.375 20.625 22.375H20.1562C20.0319 22.375 19.9127 22.4244 19.8248 22.5123C19.7369 22.6002 19.6875 22.7194 19.6875 22.8438C19.6875 22.9681 19.7369 23.0873 19.8248 23.1752C19.9127 23.2631 20.0319 23.3125 20.1562 23.3125Z" fill="#272727"/>
</svg>
