<svg width="18" height="22" viewBox="0 0 18 22" fill="none" xmlns="http://www.w3.org/2000/svg">
<path d="M9.15969 0C4.54439 0 0.790039 3.70111 0.790039 8.25C0.790039 14.3364 8.51217 21.5703 8.84094 21.8756C8.93083 21.9584 9.04526 22 9.15969 22C9.27412 22 9.38854 21.9584 9.47847 21.8756C9.8072 21.5703 17.5293 14.3364 17.5293 8.25C17.5293 3.70111 13.775 0 9.15969 0ZM9.15969 20.9003C7.69844 19.4622 1.71999 13.2702 1.71999 8.25C1.71999 4.20647 5.05751 0.916652 9.15969 0.916652C13.2619 0.916652 16.5994 4.20647 16.5994 8.25C16.5994 13.2702 10.6209 19.4622 9.15969 20.9003Z" fill="#898686"/>
<path d="M9.15959 3.66663C6.59581 3.66663 4.50977 5.72285 4.50977 8.24997C4.50977 10.7771 6.59586 12.8333 9.15959 12.8333C11.7233 12.8333 13.8094 10.7771 13.8094 8.24997C13.8094 5.72285 11.7234 3.66663 9.15959 3.66663ZM9.15959 11.9166C7.10802 11.9166 5.43976 10.2717 5.43976 8.24997C5.43976 6.22821 7.10806 4.58332 9.15959 4.58332C11.2111 4.58332 12.8794 6.22821 12.8794 8.24997C12.8794 10.2717 11.2112 11.9166 9.15959 11.9166Z" fill="#898686"/>
</svg>
