<svg width="78" height="80" viewBox="0 0 78 80" fill="none" xmlns="http://www.w3.org/2000/svg">
<path d="M75.1857 46.8585H73.9885V36.0749C73.9885 34.3677 73.1388 32.8561 71.8411 31.9377V30.4694C71.8411 28.3396 70.1085 26.6069 67.9786 26.6069H67.0847L70.5049 21.5881C71.6513 19.906 71.2154 17.6046 69.5332 16.458L46.3252 0.642365C45.5104 0.0868963 44.5282 -0.118104 43.5588 0.0658025C42.5899 0.249396 41.7504 0.79924 41.195 1.61424L21.1636 31.0085H15.5894L16.9343 17.3944C16.9494 17.241 17.0491 17.108 17.1882 17.0556C18.9208 16.4024 20.4224 15.1824 21.4161 13.6205C21.4944 13.4975 21.6421 13.4272 21.7949 13.4427L30.5379 14.3064C31.1647 14.3672 31.7224 13.9106 31.7843 13.2841C31.8461 12.6575 31.3885 12.0996 30.7619 12.0377L22.0189 11.1739C21.0041 11.0746 20.0363 11.5422 19.4925 12.3966C18.7619 13.545 17.6579 14.4419 16.3839 14.9222C15.425 15.2838 14.7666 16.145 14.6654 17.1702L13.2985 31.0083H11.8449L13.9718 9.47643C14.0483 8.70143 14.74 8.13205 15.516 8.20971L33.1838 9.95502C33.8104 10.0155 34.3683 9.55924 34.4302 8.93268C34.4921 8.30612 34.0344 7.74815 33.4079 7.68627L15.74 5.94096C13.7144 5.74112 11.903 7.22627 11.7029 9.25221L9.98848 26.6069H7.06895C4.93926 26.6069 3.20645 28.3396 3.20645 30.4694V31.471C1.4641 32.2731 0.250977 34.0344 0.250977 36.0749V74.9335C0.250977 77.7272 2.52379 80 5.3177 80H68.9219C71.7157 80 73.9885 77.7272 73.9885 74.9335V64.15H75.1857C76.5988 64.15 77.7483 63.0005 77.7483 61.5875V49.4211C77.7485 48.008 76.5988 46.8585 75.1857 46.8585ZM67.9786 28.8869C68.8514 28.8867 69.5613 29.5967 69.5613 30.4696V31.0503C69.3516 31.0238 69.1386 31.0086 68.9219 31.0086H64.0852L65.531 28.8869H67.9786ZM43.0789 2.89799C43.2914 2.58627 43.6125 2.37596 43.9832 2.30565C44.0718 2.28893 44.1607 2.28049 44.2489 2.28049C44.5297 2.28049 44.8041 2.36455 45.0413 2.52612L68.2493 18.3417C68.8927 18.7803 69.0596 19.6606 68.6211 20.3041L61.3264 31.0081H59.5758L63.1522 25.7602C63.7322 24.9091 63.78 23.826 63.2766 22.9333C62.6075 21.7474 62.3363 20.351 62.5129 19.0011C62.6441 17.9969 62.2022 17.0166 61.3597 16.4425L49.3288 8.24377C48.4861 7.66955 47.4121 7.6169 46.5255 8.10643C45.3341 8.76424 43.9352 9.02252 42.5868 8.83377C41.5868 8.69346 40.5725 9.14502 40.0011 9.9833L25.6732 31.0083H23.9225L43.0789 2.89799ZM43.581 22.256C38.6168 22.256 34.5418 26.1267 34.2097 31.0083H28.4318L41.8847 11.2672C41.8849 11.2672 41.8849 11.2672 41.8849 11.2672C41.9613 11.1549 42.088 11.088 42.2182 11.088C42.2355 11.088 42.2529 11.0892 42.2702 11.0916C44.1043 11.3481 46.0066 10.9972 47.6272 10.1024C47.7547 10.0317 47.9185 10.0419 48.0447 10.1278L60.0758 18.3267C60.2018 18.4127 60.271 18.5614 60.2522 18.7058C60.0121 20.5416 60.3811 22.4406 61.291 24.0535C61.3639 24.183 61.355 24.3489 61.2685 24.4763L56.8172 31.0081H52.9527C52.6204 26.1267 48.5455 22.256 43.581 22.256ZM50.6666 31.0085H36.4955C36.8221 27.3852 39.8743 24.536 43.581 24.536C47.2879 24.5358 50.3402 27.3852 50.6666 31.0085ZM5.48629 30.4694C5.48629 29.5966 6.19613 28.8866 7.06895 28.8866H9.76332L9.55379 31.0083H5.48629V30.4694ZM2.53082 36.0749C2.53082 34.5383 3.78098 33.2882 5.3177 33.2882H68.9219C70.4586 33.2882 71.7086 34.5383 71.7086 36.0749V39.238H2.53082V36.0749ZM71.7086 74.9335C71.7086 76.47 70.4586 77.7202 68.9219 77.7202H5.3177C3.78098 77.7202 2.53082 76.47 2.53082 74.9335V71.7703H8.67801C9.3077 71.7703 9.81785 71.26 9.81785 70.6305C9.81785 70.001 9.30754 69.4907 8.67801 69.4907H2.53082V41.5178H71.7086V46.8585H60.8702H60.87C57.455 46.8585 54.4969 48.8491 53.093 51.7305C53.0883 51.7402 53.083 51.7496 53.0782 51.7592C53.0663 51.7838 53.056 51.8092 53.0444 51.8339C52.8772 52.1891 52.7319 52.5567 52.6136 52.9361C52.6133 52.9372 52.613 52.9382 52.6127 52.9392C52.3604 53.75 52.2243 54.6114 52.2243 55.5042C52.2243 60.2716 56.1027 64.15 60.8699 64.15H60.87H71.7085V69.4907H15.9771C15.3474 69.4907 14.8372 70.001 14.8372 70.6305C14.8372 71.26 15.3475 71.7703 15.9771 71.7703H71.7086V74.9335ZM75.4686 61.5874C75.4686 61.7433 75.3418 61.8702 75.1857 61.8702H60.8703C58.4571 61.8702 56.353 60.5203 55.2738 58.5361C55.2247 58.446 55.1779 58.3544 55.133 58.2617C55.0435 58.0763 54.9627 57.8858 54.8913 57.6908C54.641 57.0086 54.5044 56.2721 54.5044 55.5042C54.5044 54.7364 54.6411 53.9999 54.8913 53.3177C54.9629 53.1228 55.0436 52.9324 55.133 52.7467C55.1779 52.6541 55.2247 52.5625 55.2738 52.4724C56.353 50.4882 58.4571 49.1383 60.8703 49.1383H75.1857C75.3416 49.1383 75.4686 49.2652 75.4686 49.4211V61.5874Z" fill="#272727"/>
</svg>
